HIERARCHY
ROOT Hips
{
	OFFSET 0.00000 0.00000 0.00000
	CHANNELS 6 Xposition Yposition Zposition Zrotation Yrotation Xrotation 
	JOINT LHipJoint
	{
		OFFSET 0 0 0
		CHANNELS 3 Zrotation Yrotation Xrotation
		JOINT LeftUpLeg
		{
			OFFSET 1.54859 -1.61379 0.86856
			CHANNELS 3 Zrotation Yrotation Xrotation
			JOINT LeftLeg
			{
				OFFSET 2.25087 -6.18423 0.00000
				CHANNELS 3 Zrotation Yrotation Xrotation
				JOINT LeftFoot
				{
					OFFSET 2.40328 -6.60297 0.00000
					CHANNELS 3 Zrotation Yrotation Xrotation
					JOINT LeftToeBase
					{
						OFFSET 0.17435 -0.47901 2.02453
						CHANNELS 3 Zrotation Yrotation Xrotation
						End Site
						{
							OFFSET 0.00000 -0.00000 1.04844
						}
					}
				}
			}
		}
	}
	JOINT RHipJoint
	{
		OFFSET 0 0 0
		CHANNELS 3 Zrotation Yrotation Xrotation
		JOINT RightUpLeg
		{
			OFFSET -1.54669 -1.61379 0.86856
			CHANNELS 3 Zrotation Yrotation Xrotation
			JOINT RightLeg
			{
				OFFSET -2.28132 -6.26789 0.00000
				CHANNELS 3 Zrotation Yrotation Xrotation
				JOINT RightFoot
				{
					OFFSET -2.51636 -6.91365 0.00000
					CHANNELS 3 Zrotation Yrotation Xrotation
					JOINT RightToeBase
					{
						OFFSET -0.15124 -0.41552 2.21090
						CHANNELS 3 Zrotation Yrotation Xrotation
						End Site
						{
							OFFSET -0.00000 -0.00000 1.13399
						}
					}
				}
			}
		}
	}
	JOINT LowerBack
	{
		OFFSET 0 0 0
		CHANNELS 3 Zrotation Yrotation Xrotation
		JOINT Spine
		{
			OFFSET -0.04287 2.26161 -0.25690
			CHANNELS 3 Zrotation Yrotation Xrotation
			JOINT Spine1
			{
				OFFSET 0.02248 2.28395 -0.10140
				CHANNELS 3 Zrotation Yrotation Xrotation
				JOINT Neck
				{
					OFFSET 0 0 0
					CHANNELS 3 Zrotation Yrotation Xrotation
					JOINT Neck1
					{
						OFFSET -0.11644 1.38496 0.11345
						CHANNELS 3 Zrotation Yrotation Xrotation
						JOINT Head
						{
							OFFSET 0.29383 1.36600 0.06642
							CHANNELS 3 Zrotation Yrotation Xrotation
							End Site
							{
								OFFSET 0.11075 1.41395 -0.00294
							}
						}
					}
				}
				JOINT LeftShoulder
				{
					OFFSET 0 0 0
					CHANNELS 3 Zrotation Yrotation Xrotation
					JOINT LeftArm
					{
						OFFSET 3.51628 0.59542 -0.30346
						CHANNELS 3 Zrotation Yrotation Xrotation
						JOINT LeftForeArm
						{
							OFFSET 4.76405 -0.00000 0.00000
							CHANNELS 3 Zrotation Yrotation Xrotation
							JOINT LeftHand
							{
								OFFSET 3.13759 -0.00000 -0.00000
								CHANNELS 3 Zrotation Yrotation Xrotation
								JOINT LeftFingerBase
								{
									OFFSET 0 0 0
									CHANNELS 3 Zrotation Yrotation Xrotation
									JOINT LeftHandIndex1
									{
										OFFSET 0.73226 -0.00000 -0.00000
										CHANNELS 3 Zrotation Yrotation Xrotation
										End Site
										{
											OFFSET 0.59037 -0.00000 -0.00000
										}
									}
								}
								JOINT LThumb
								{
									OFFSET 0 0 0
									CHANNELS 3 Zrotation Yrotation Xrotation
									End Site
									{
										OFFSET 0.59938 -0.00000 0.59938
									}
								}
							}
						}
					}
				}
				JOINT RightShoulder
				{
					OFFSET 0 0 0
					CHANNELS 3 Zrotation Yrotation Xrotation
					JOINT RightArm
					{
						OFFSET -3.30990 0.84213 -0.36430
						CHANNELS 3 Zrotation Yrotation Xrotation
						JOINT RightForeArm
						{
							OFFSET -5.10161 -0.00000 -0.00000
							CHANNELS 3 Zrotation Yrotation Xrotation
							JOINT RightHand
							{
								OFFSET -3.23267 -0.00000 -0.00000
								CHANNELS 3 Zrotation Yrotation Xrotation
								JOINT RightFingerBase
								{
									OFFSET 0 0 0
									CHANNELS 3 Zrotation Yrotation Xrotation
									JOINT RightHandIndex1
									{
										OFFSET -0.70200 -0.00000 -0.00000
										CHANNELS 3 Zrotation Yrotation Xrotation
										End Site
										{
											OFFSET -0.56597 -0.00000 -0.00000
										}
									}
								}
								JOINT RThumb
								{
									OFFSET 0 0 0
									CHANNELS 3 Zrotation Yrotation Xrotation
									End Site
									{
										OFFSET -0.57461 -0.00000 0.57461
									}
								}
							}
						}
					}
				}
			}
		}
	}
}
MOTION
Frames: 5
Frame Time: .0083333
-35.8026 15.4769 15.142 0 0 0 0 0 0 -21 0 0 0 0 0 0 0 0 0 0 0 0 0 0 21 0 0 0 0 0 0 0 0 0 0 0 0 0 0 0 0 0 0 0 0 0 0 -16 0 0 21 0 0 11 0 0 0 -8 0 0 0 0 0 0 0 0 0 0 0 0 0 0 0 0 0 0 0 0 8 0 0 0 0 0 0 0 0 0 0 0 0 0 0 0 0 0
-35.8026 15.4769 15.1420 139.0570 83.4292 140.6280 0.0000 0.0000 0.0000 -23.4233 1.2530 -9.1799 3.8238 11.9222 35.4572 2.0630 -1.9312 -26.6504 0.0137 -0.7571 -2.0806 0.0000 0.0000 0.0000 10.3808 4.5588 -9.1309 -5.3025 -13.7166 42.1137 -2.4201 -7.0082 -32.5199 -0.1412 2.4221 -6.6738 -5.3396 0.5905 -0.7401 -0.4764 1.2365 6.5131 2.5814 0.3823 7.1381 -28.0725 -20.0440 -2.4478 52.5951 -23.2064 -23.6707 21.6011 -12.3923 7.2202 0.0000 -0.0000 0.0000 -96.9428 6.2491 50.4837 111.6544 -58.1519 -78.6369 -0.0000 0.0000 -43.9448 25.1359 -12.5126 -5.8044 -7.1250 0.0000 -0.0000 -1.4692 16.2089 1.0010 0.0000 -0.0000 0.0000 85.5867 -5.9031 60.9129 -118.3249 56.7400 -84.2616 0.0000 -0.0000 -13.3438 -39.7907 41.8189 -29.0459 7.1250 -0.0000 -0.0000 -1.3908 19.3512 -1.7735
-35.7720 15.4749 15.1239 138.8890 83.9158 140.4730 0.0000 0.0000 0.0000 -23.1591 2.2846 -9.6238 4.0216 12.1891 36.4042 2.1625 -1.6753 -27.3708 0.1723 -2.6737 -7.3716 0.0000 0.0000 0.0000 10.6185 4.6632 -8.9781 -5.2654 -13.6766 41.9572 -2.4454 -6.8613 -32.5868 -0.1328 2.3492 -6.4716 -3.9158 1.4661 -0.4636 -0.8907 2.3336 6.1946 1.4095 1.0337 6.5972 -29.0864 -20.3253 -1.3177 52.8817 -24.0154 -23.9203 21.6733 -12.9098 7.5567 0.0000 0.0000 0.0000 -95.7227 7.7042 53.2088 111.6885 -58.1458 -78.6659 -0.0000 0.0000 -42.4293 26.3907 -12.8737 -6.3087 -7.1250 0.0000 -0.0000 -0.6291 15.6674 0.4358 0.0000 0.0000 0.0000 86.9362 -7.3482 58.4763 -118.2916 56.7482 -84.2338 0.0000 -0.0000 -13.1466 -39.7810 41.9046 -29.0780 7.1250 -0.0000 -0.0000 -1.3567 19.4330 -1.7312
-35.7468 15.4643 15.1044 137.1530 84.1749 138.8730 0.0000 0.0000 0.0000 -23.2244 2.5004 -9.8560 4.0645 12.2458 36.6071 2.1971 -1.6232 -27.6089 0.2003 -2.8817 -7.9495 0.0000 0.0000 0.0000 10.4673 4.6026 -9.2031 -5.3006 -13.7145 42.1057 -2.4862 -6.6481 -32.7082 -0.1510 2.5038 -6.9001 -4.1368 1.3870 -0.1122 -0.7935 2.1604 5.5330 1.6015 0.9486 5.6877 -29.3098 -19.3552 -0.1447 51.9427 -23.1562 -22.8858 21.9982 -12.5475 7.0049 -0.0000 0.0000 0.0000 -96.1063 9.0334 53.0905 111.1792 -58.2354 -78.2330 -0.0000 0.0000 -40.0752 28.0787 -12.8362 -6.7591 -7.1250 0.0000 -0.0000 0.5333 15.4997 -0.3714 -0.0000 0.0000 0.0000 86.6806 -8.8771 58.8821 -118.1568 56.7814 -84.1210 0.0000 -0.0000 -13.2805 -39.7374 42.0523 -29.1101 7.1250 -0.0000 -0.0000 -1.2853 19.5629 -1.6418
-35.7212 15.4444 15.0807 133.8120 84.3415 135.7200 0.0000 0.0000 0.0000 -23.4682 1.7131 -10.1405 4.1392 12.3434 36.9577 2.2862 -2.3310 -28.0015 0.0155 -0.8035 -2.2082 0.0000 0.0000 0.0000 10.1347 4.6944 -9.4239 -5.3230 -13.7386 42.2003 -2.4922 -6.5803 -32.7069 -0.1863 2.7799 -7.6665 -4.2838 1.4578 0.1337 -0.8575 2.2351 5.3165 1.6087 0.9888 5.3115 -29.3196 -19.0514 -0.3514 51.5037 -22.8500 -22.1806 21.9306 -12.3113 6.9646 0.0000 -0.0000 0.0000 -96.1439 9.4611 53.4589 110.7416 -58.3103 -77.8609 -0.0000 0.0000 -37.5973 29.6427 -12.7385 -7.1520 -7.1250 0.0000 -0.0000 1.6137 15.4038 -1.1276 0.0000 -0.0000 0.0000 86.6970 -9.2731 58.8903 -117.8262 56.8619 -83.8443 0.0000 -0.0000 -13.7646 -42.8134 42.7613 -32.1701 7.1250 -0.0000 -0.0000 -2.4714 21.5572 -3.2088
